<svg width="68" height="68" viewBox="0 0 68 68" fill="none" xmlns="http://www.w3.org/2000/svg">
<path d="M57.2965 10.2967L33.5935 0.40625L9.89047 10.2967L0 33.9998L9.80521 57.7028L33.5935 67.5933L57.2965 57.7881L67.187 33.9998L57.2965 10.2967ZM65.0554 32.7208L54.3976 29.8219V29.3103C54.3976 27.6051 53.4597 26.0703 52.0955 25.2177L56.8702 12.6841L65.0554 32.7208ZM30.0125 42.7818C29.7567 40.8208 28.6483 39.2008 27.0283 38.2629L31.2914 27.9461C32.0588 28.2019 32.8261 28.2872 33.5935 28.2872C34.3609 28.2872 35.2135 28.2019 35.8956 27.9461L41.1819 40.7355C40.4998 41.2471 39.9882 41.9292 39.8177 42.7818H30.0125ZM43.1429 40.1387C42.9724 40.1387 42.8019 40.1387 42.5461 40.2239L37.2598 27.4345C38.3682 26.8377 39.2208 25.9851 39.9029 24.9619L45.1892 27.8608C45.0187 28.3724 44.9334 28.884 44.9334 29.3956C44.9334 31.0156 45.7861 32.465 46.9797 33.3177L43.825 40.2239C43.5692 40.1387 43.3987 40.1387 43.1429 40.1387ZM23.9588 37.4103C23.2767 37.4103 22.5946 37.4955 21.9978 37.7513L17.2231 27.8608C17.9904 27.264 18.502 26.3261 18.502 25.2177V25.1324L26.4314 23.1714C27.0283 24.9619 28.3072 26.4966 30.0125 27.3493L25.7493 37.5808C25.1525 37.4955 24.5557 37.4103 23.9588 37.4103ZM49.6229 24.7061C48.0882 24.7061 46.8092 25.3882 45.9566 26.4966L40.6703 23.5977C41.0966 22.6598 41.2671 21.6367 41.2671 20.6135C41.2671 19.7609 41.0966 18.9935 40.8408 18.2262L55.3355 12.1725L50.646 24.7914C50.305 24.7061 49.9639 24.7061 49.6229 24.7061ZM26.0051 21.7219L18.0757 23.683C17.4789 22.5746 16.3704 21.8072 15.0062 21.8072H14.7504L11.681 12.1725L26.2609 18.2262C26.0051 18.9935 25.8346 19.7609 25.8346 20.6135C25.9199 21.0398 25.9199 21.3809 26.0051 21.7219ZM12.6189 27.6051C13.2157 28.2019 14.0683 28.6282 15.0062 28.6282C15.262 28.6282 15.5178 28.6282 15.7736 28.5429L20.5483 38.4334C19.6957 38.945 19.0136 39.7124 18.502 40.565L2.55788 33.9998L12.6189 27.6051ZM45.1892 40.8208L48.4292 33.9145C48.8555 33.9998 49.2818 34.085 49.7082 34.085C51.5839 34.085 53.2892 32.9766 53.9713 31.3566L64.2881 34.085L45.9566 41.6734C45.7861 41.3323 45.445 41.0766 45.1892 40.8208ZM40.244 16.862C39.0503 14.7304 36.8335 13.2809 34.3609 13.0251V2.36729L54.8239 10.8083L40.244 16.862ZM32.8261 2.36729V13.0251C30.2683 13.2809 28.1367 14.7304 26.943 16.862L12.3631 10.8083L32.8261 2.36729ZM10.402 12.8546L13.3862 22.2335C12.3631 22.8303 11.681 23.9388 11.681 25.1324C11.681 25.5587 11.7663 25.8998 11.9368 26.3261L2.38736 32.3798L10.402 12.8546ZM2.21683 35.364L17.9904 41.9292C17.8199 42.4408 17.7346 42.9523 17.7346 43.5492C17.7346 44.9986 18.2462 46.2776 19.0988 47.386L10.6578 55.9123L2.21683 35.364ZM11.7663 56.9354L20.2073 48.4092C21.2304 49.1765 22.5094 49.6881 23.9588 49.6881C24.5557 49.6881 25.1525 49.6028 25.6641 49.4323L32.2293 65.3764L11.7663 56.9354ZM27.0283 48.8355C28.6483 47.8976 29.8419 46.1923 30.0125 44.2313H39.8177C39.9882 45.0839 40.4998 45.8513 41.2671 46.2776L33.5935 64.7796L27.0283 48.8355ZM42.6314 46.8744C42.8019 46.8744 42.9724 46.9597 43.1429 46.9597C43.825 46.9597 44.4219 46.7892 44.9334 46.4481L55.4208 56.9354L34.9577 65.3764L42.6314 46.8744ZM56.5292 55.827L45.9566 45.3397C46.2976 44.8281 46.4682 44.2313 46.4682 43.5492C46.4682 43.3787 46.4682 43.2081 46.3829 43.0376L64.8849 35.364L56.5292 55.827Z" fill="url(#paint0_linear_924_3856)"/>
<defs>
<linearGradient id="paint0_linear_924_3856" x1="-4" y1="-1" x2="58.5" y2="48" gradientUnits="userSpaceOnUse">
<stop stop-color="#FD00FF"/>
<stop offset="1" stop-color="#67EFFF"/>
</linearGradient>
</defs>
</svg>
