<svg width="140" height="46" viewBox="0 0 140 46" fill="none" xmlns="http://www.w3.org/2000/svg">
<path d="M18.8348 0.604492C25.2641 0.604492 29.4842 2.8593 31.4953 7.3689C32.6227 9.56276 33.1864 13.7829 33.1864 20.0293V20.2578H29.8956V21.7661H33.1864V37.9001H31.0382V43.7504H26.6962V45.3958H11.4763V43.7504H9.60234V37.9001H5.71737V33.3296H8.04835V30.9529H5.71737V33.3296H0.187012V30.9529H4.34621C4.31574 27.2965 4.3005 24.4932 4.3005 22.5431V18.7496C4.3005 11.6804 5.50408 6.94232 7.91123 4.53516C10.1051 1.91472 13.7463 0.604492 18.8348 0.604492ZM13.3502 16.0529H13.4416L13.3502 16.1901V20.2578H10.0137V21.7661H13.3502C13.2892 28.1954 13.2588 33.0554 13.2588 36.3462V37.9001H20.7545V35.4321H24.2281V35.3863C24.2281 32.3393 24.1976 28.0887 24.1367 22.6345C24.1367 22.4212 24.1671 21.8423 24.2281 20.8977C24.2281 15.0169 23.8777 11.4062 23.1769 10.0655C22.476 8.78577 21.1811 8.14589 19.2919 8.14589H18.1493C15.8945 8.14589 14.4928 9.12094 13.9444 11.071C13.7006 12.0766 13.5025 13.7372 13.3502 16.0529ZM33.1864 21.7661V20.2578H38.5796V21.7661H33.1864ZM33.4149 22.1318L33.5977 22.0404H33.7348C33.8567 22.0404 33.9481 22.3451 34.0091 22.9545C34.1005 22.9545 34.2223 22.6498 34.3747 22.0404H34.6032C34.7251 22.0404 34.8317 22.3603 34.9232 23.0002H34.9689L35.1974 22.0404H35.563V22.1318C35.3497 23.1982 35.1822 23.7315 35.0603 23.7315H34.786C34.786 23.6705 34.7099 23.3506 34.5575 22.7716H34.4661C34.4052 23.4115 34.3138 23.7315 34.1919 23.7315H33.8719C33.7196 23.0916 33.5672 22.5583 33.4149 22.1318ZM33.7348 24.2799H34.0091C34.1309 24.2799 34.2833 24.6303 34.4661 25.3311H34.5575C34.5575 25.2397 34.6489 24.8893 34.8317 24.2799H35.3802V26.0167H34.9689V25.1026H34.9232C34.7708 25.712 34.6489 26.0167 34.5575 26.0167H34.329C34.1766 25.5292 34.1005 25.255 34.1005 25.194H34.0091C34.0091 25.7425 33.9633 26.0167 33.8719 26.0167H33.5977V24.417C33.5977 24.3256 33.6434 24.2799 33.7348 24.2799ZM33.5063 26.5195H33.7805C34.0548 26.6718 34.1919 26.8547 34.1919 27.068C34.1919 27.068 34.329 26.8851 34.6032 26.5195H34.9232V26.7023L34.4661 27.3422C34.4661 27.3727 34.6337 27.6469 34.9689 28.1649V28.2563H34.6032L34.1919 27.7078C34.009 28.0735 33.8719 28.2563 33.7805 28.2563H33.4149C33.7805 27.7383 33.9633 27.4336 33.9633 27.3422C33.6586 26.8851 33.5063 26.6109 33.5063 26.5195ZM33.7348 28.7591H34.1919C34.6794 28.7591 34.9232 28.9419 34.9232 29.3075V29.3532L34.786 29.5818C34.847 29.5818 34.9079 29.6732 34.9689 29.856V30.1302C34.8775 30.374 34.6337 30.4959 34.2376 30.4959H33.5977V28.9419C33.5977 28.82 33.6434 28.7591 33.7348 28.7591ZM34.4661 29.1704H34.0091V29.4446H34.4661V29.1704ZM22.4456 30.8158V29.1704H22.8569V29.7646H23.4054V29.3075C23.4054 29.2161 23.4511 29.1704 23.5425 29.1704H23.8167V30.8158H23.4054V30.1302H22.8569V30.8158H22.4456ZM34.3747 29.7646H34.0091V30.1302H34.5575V29.9017C34.5575 29.8103 34.4966 29.7646 34.3747 29.7646ZM33.7348 31.0443H34.6946C34.786 31.0443 34.8317 31.09 34.8317 31.1814V31.41H34.0091V31.6842H34.786V32.0498H34.0091V32.3698H34.8317V32.7354H33.5977V31.1814C33.5977 31.09 33.6434 31.0443 33.7348 31.0443ZM22.4456 31.7756V31.41H23.6796V31.5471C23.6796 31.7299 23.4359 32.1108 22.9483 32.6897C23.4968 32.6897 23.771 32.7354 23.771 32.8268V33.0554H22.3542V32.7354C22.7198 32.3088 22.9636 31.9889 23.0854 31.7756H22.4456ZM14.5385 33.5581C14.9956 33.5581 15.2546 33.8933 15.3155 34.5636C15.3155 35.0512 15.0108 35.3254 14.4014 35.3863C13.9139 35.2645 13.6701 34.9902 13.6701 34.5636C13.6701 33.8933 13.9596 33.5581 14.5385 33.5581ZM22.8569 33.6495H23.314C23.314 33.7714 23.512 34.3199 23.9081 35.2949H23.5425C23.4511 35.2949 23.4054 35.1883 23.4054 34.975H22.8569C22.7655 34.975 22.7198 35.0816 22.7198 35.2949H22.2627V35.2035C22.3846 35.0207 22.5827 34.5027 22.8569 33.6495ZM14.1272 34.2437V34.5636C14.1272 34.8379 14.2643 34.975 14.5385 34.975C14.7518 34.9445 14.8585 34.8074 14.8585 34.5636V34.2437C14.8585 34.1523 14.7518 34.0457 14.5385 33.9238H14.4014C14.3405 33.9238 14.2491 34.0304 14.1272 34.2437ZM23.0397 34.2437L22.9483 34.6094H23.2226C23.1616 34.3656 23.1007 34.2437 23.0397 34.2437ZM14.4014 35.7977C14.7366 35.7977 14.9803 35.95 15.1327 36.2547V36.4833H14.7671C14.7671 36.27 14.6299 36.1633 14.3557 36.1633L14.1272 36.4833V36.7575C14.1272 37.0927 14.2643 37.2603 14.5385 37.2603C14.5995 37.2603 14.7366 37.1232 14.9499 36.8489H15.2241C15.2241 37.2755 14.9499 37.5345 14.4014 37.6259C13.9139 37.4736 13.6701 37.1841 13.6701 36.7575C13.7311 36.1176 13.9748 35.7977 14.4014 35.7977ZM37.3913 0.878725V0.650198H46.4409V1.01584C46.4409 3.84958 46.9589 6.01297 47.9949 7.50602C50.7068 12.2899 52.0627 14.8646 52.0627 15.2302H52.1541C52.1541 15.0169 53.7538 11.8633 56.9532 5.76921C57.3493 4.21522 57.5474 2.82883 57.5474 1.61001V0.650198H66.0486V0.741609C66.0486 4.94651 65.3021 8.10019 63.809 10.2026C63.4738 10.8425 61.0667 14.6208 56.5875 21.5376C57.5321 23.0611 58.0044 23.8686 58.0044 23.96H55.2164V25.2397H58.7814C59.0252 25.4835 60.6249 28.0735 63.5805 33.0097V38.6314H65.0888V42.105H61.7523V43.1563H65.0888V44.8474H54.9879V33.0097H53.8452C52.4436 30.0236 51.7428 28.4391 51.7428 28.2563H51.6514C51.2552 29.2923 50.5392 30.8767 49.5032 33.0097V39.1342H46.4409V45.3501C44.8869 45.3806 43.7443 45.3958 43.013 45.3958H37.2541L36.4771 45.3501V38.0373H38.5339V31.6385H43.6986V30.4959H41.2762V26.1538H44.567C44.6889 25.971 45.5725 24.5694 47.2179 21.9489V21.7661C42.3427 14.4837 39.6918 10.4769 39.2652 9.74558C38.0159 7.79548 37.3913 4.83986 37.3913 0.878725ZM71.0305 22.8631V0.924431H92.9234V8.2373C92.9234 8.32871 92.8624 8.37442 92.7406 8.37442H79.7602V18.0183H91.4151V18.1097C91.4151 18.3534 91.3694 19.9227 91.278 22.8173C91.217 22.8173 91.1866 22.8326 91.1866 22.8631H91.735V25.1026H81.6341V34.2437H78.9375V35.1578H81.6341V37.9459H93.0605V38.9514H92.1464V44.436H78.4805V45.3958H71.9903V29.4446H71.0305V23.8229H63.9004V22.8631H71.0305ZM74.7326 22.8631H71.0762V23.8229H74.7326V22.8631ZM102.841 26.3824L110.566 0.650198H118.107C118.198 1.07678 120.636 9.22759 125.42 25.1026H126.791V39.8198H123.683V40.9624H126.791V44.1161H118.473V35.0664H108.28V38.9057H104.167V45.3958H96.5798V44.9388H97.174V38.9057H100.282V26.3824H102.841ZM114.268 13.2649H114.085V13.3563C113.445 16.8909 112.196 22.4822 110.337 30.1302H117.33V25.1026H116.736C115.091 17.8507 114.268 13.9048 114.268 13.2649ZM100.739 24.1428H101.425C101.425 24.3256 101.531 24.478 101.745 24.5999C101.745 24.417 101.836 24.2647 102.019 24.1428H102.567V24.1885C102.202 24.676 102.019 24.9503 102.019 25.0112C102.11 25.194 102.308 25.4987 102.613 25.9253V26.1081H102.339C102.064 26.1081 101.866 25.8948 101.745 25.4683C101.409 25.8948 101.227 26.1081 101.196 26.1081H100.83C100.709 26.1081 100.648 26.0472 100.648 25.9253C100.709 25.9253 100.922 25.6511 101.287 25.1026V24.9655C100.922 24.4475 100.739 24.1733 100.739 24.1428ZM94.4317 26.3824V25.0112H100.282V26.3824H94.4317ZM127.02 26.4738V26.0167H128.574V26.3824L127.614 27.5707H128.528C128.619 27.6012 128.665 27.6621 128.665 27.7535V27.8907C128.665 28.0125 128.619 28.0735 128.528 28.0735H126.928V27.6621L127.888 26.4738H127.02ZM115.456 29.9931V27.9821H115.913V28.7133L116.736 27.9821H117.193V28.0735L116.553 28.8048C117.041 29.5056 117.284 29.9017 117.284 29.9931H116.827C116.766 29.9931 116.538 29.7189 116.142 29.1704C116.081 29.1704 116.005 29.2466 115.913 29.3989V29.9931H115.456ZM127.157 28.6676H128.071C128.528 28.7286 128.756 28.9571 128.756 29.3532L128.528 29.7189C128.68 29.8712 128.756 30.1759 128.756 30.633V30.6787H128.299C128.238 30.1912 128.162 29.9474 128.071 29.9474H127.522V30.6787H127.157C127.065 30.6787 127.02 30.633 127.02 30.5416V28.8048C127.02 28.7134 127.065 28.6676 127.157 28.6676ZM128.208 29.079H127.522V29.536H128.071C128.162 29.536 128.208 29.4903 128.208 29.3989V29.079ZM127.02 31.2729H128.437C128.528 31.3033 128.574 31.349 128.574 31.41V31.5928C128.574 31.6842 128.528 31.7299 128.437 31.7299H127.979V33.3296H127.477V31.7299H127.02C126.898 31.7299 126.837 31.6842 126.837 31.5928V31.41C126.867 31.3186 126.928 31.2729 127.02 31.2729ZM127.477 35.9805L126.837 33.9238H127.202C127.355 33.9238 127.522 34.3504 127.705 35.2035H127.751C127.995 34.4722 128.117 34.0457 128.117 33.9238H128.665C128.269 35.2949 128.01 35.9805 127.888 35.9805H127.477ZM108.646 36.3462L110.566 35.6606V36.0719C110.566 36.1329 110.154 36.3005 109.332 36.5747V36.6661L110.566 37.0774V37.5345L108.646 36.8489V36.3462ZM98.8651 36.5747H99.0936C99.2764 36.5747 99.5507 37.2603 99.9163 38.6314H99.4593C99.4593 38.5705 99.4136 38.4029 99.3221 38.1287H98.6366C98.6061 38.4638 98.5299 38.6314 98.408 38.6314H98.0424C98.469 37.2603 98.7432 36.5747 98.8651 36.5747ZM127.842 36.5747H128.071C128.558 36.5747 128.863 36.9251 128.985 37.6259C128.833 38.3267 128.497 38.6771 127.979 38.6771C127.279 38.5553 126.928 38.2048 126.928 37.6259C127.05 36.9251 127.355 36.5747 127.842 36.5747ZM127.477 37.5345V37.6259C127.477 37.9001 127.599 38.1134 127.842 38.2658H128.071C128.315 38.1134 128.437 37.9001 128.437 37.6259V37.5345C128.406 37.1384 128.223 36.9403 127.888 36.9403C127.614 37.0622 127.477 37.2603 127.477 37.5345ZM99.0022 37.2603H98.9565C98.8346 37.5954 98.7737 37.763 98.7737 37.763H99.1393L99.0022 37.2603ZM118.473 45.3958V44.6645H128.528V45.3958H118.473ZM131.453 0.604492H139.863C139.954 0.634962 140 0.695903 140 0.787314V22.5431C140 22.6345 139.954 22.6802 139.863 22.6802H138.857V45.2587C138.857 45.3501 138.812 45.3958 138.72 45.3958H131.453C131.331 45.3958 131.27 45.3501 131.27 45.2587V22.1318H129.031C128.939 22.1318 128.894 22.0861 128.894 21.9946V21.0348C128.894 20.913 128.939 20.852 129.031 20.852H131.27V0.787314C131.301 0.665433 131.362 0.604492 131.453 0.604492ZM135.658 20.852H131.362V22.1318H135.658V20.852Z" fill="#313739"/>
</svg>
