<svg width="220" height="68" viewBox="0 0 220 68" fill="none" xmlns="http://www.w3.org/2000/svg">
<path d="M95.8348 11.6045C102.264 11.6045 106.484 13.8593 108.495 18.3689C109.623 20.5628 110.186 24.7829 110.186 31.0293V31.2578H106.896V32.7661H110.186V48.9001H108.038V54.7504H103.696V56.3958H88.4763V54.7504H86.6023V48.9001H82.7174V44.3296H85.0484V41.9529H82.7174V44.3296H77.187V41.9529H81.3462C81.3157 38.2965 81.3005 35.4932 81.3005 33.5431V29.7496C81.3005 22.6804 82.5041 17.9423 84.9112 15.5352C87.1051 12.9147 90.7463 11.6045 95.8348 11.6045ZM90.3502 27.0529H90.4416L90.3502 27.1901V31.2578H87.0137V32.7661H90.3502C90.2892 39.1954 90.2588 44.0554 90.2588 47.3462V48.9001H97.7545V46.4321H101.228V46.3863C101.228 43.3393 101.198 39.0887 101.137 33.6345C101.137 33.4212 101.167 32.8423 101.228 31.8977C101.228 26.0169 100.878 22.4062 100.177 21.0655C99.476 19.7858 98.1811 19.1459 96.2919 19.1459H95.1493C92.8945 19.1459 91.4928 20.1209 90.9444 22.071C90.7006 23.0766 90.5025 24.7372 90.3502 27.0529ZM110.186 32.7661V31.2578H115.58V32.7661H110.186ZM110.415 33.1318L110.598 33.0404H110.735C110.857 33.0404 110.948 33.3451 111.009 33.9545C111.1 33.9545 111.222 33.6498 111.375 33.0404H111.603C111.725 33.0404 111.832 33.3603 111.923 34.0002H111.969L112.197 33.0404H112.563V33.1318C112.35 34.1982 112.182 34.7315 112.06 34.7315H111.786C111.786 34.6705 111.71 34.3506 111.558 33.7716H111.466C111.405 34.4115 111.314 34.7315 111.192 34.7315H110.872C110.72 34.0916 110.567 33.5583 110.415 33.1318ZM110.735 35.2799H111.009C111.131 35.2799 111.283 35.6303 111.466 36.3311H111.558C111.558 36.2397 111.649 35.8893 111.832 35.2799H112.38V37.0167H111.969V36.1026H111.923C111.771 36.712 111.649 37.0167 111.558 37.0167H111.329C111.177 36.5292 111.1 36.255 111.1 36.194H111.009C111.009 36.7425 110.963 37.0167 110.872 37.0167H110.598V35.417C110.598 35.3256 110.643 35.2799 110.735 35.2799ZM110.506 37.5195H110.781C111.055 37.6718 111.192 37.8547 111.192 38.068C111.192 38.068 111.329 37.8851 111.603 37.5195H111.923V37.7023L111.466 38.3422C111.466 38.3727 111.634 38.6469 111.969 39.1649V39.2563H111.603L111.192 38.7078C111.009 39.0735 110.872 39.2563 110.781 39.2563H110.415C110.781 38.7383 110.963 38.4336 110.963 38.3422C110.659 37.8851 110.506 37.6109 110.506 37.5195ZM110.735 39.7591H111.192C111.679 39.7591 111.923 39.9419 111.923 40.3075V40.3532L111.786 40.5818C111.847 40.5818 111.908 40.6732 111.969 40.856V41.1302C111.877 41.374 111.634 41.4959 111.238 41.4959H110.598V39.9419C110.598 39.82 110.643 39.7591 110.735 39.7591ZM111.466 40.1704H111.009V40.4446H111.466V40.1704ZM99.4456 41.8158V40.1704H99.8569V40.7646H100.405V40.3075C100.405 40.2161 100.451 40.1704 100.543 40.1704H100.817V41.8158H100.405V41.1302H99.8569V41.8158H99.4456ZM111.375 40.7646H111.009V41.1302H111.558V40.9017C111.558 40.8103 111.497 40.7646 111.375 40.7646ZM110.735 42.0443H111.695C111.786 42.0443 111.832 42.09 111.832 42.1814V42.41H111.009V42.6842H111.786V43.0498H111.009V43.3698H111.832V43.7354H110.598V42.1814C110.598 42.09 110.643 42.0443 110.735 42.0443ZM99.4456 42.7756V42.41H100.68V42.5471C100.68 42.7299 100.436 43.1108 99.9483 43.6897C100.497 43.6897 100.771 43.7354 100.771 43.8268V44.0554H99.3542V43.7354C99.7198 43.3088 99.9636 42.9889 100.085 42.7756H99.4456ZM91.5385 44.5581C91.9956 44.5581 92.2546 44.8933 92.3155 45.5636C92.3155 46.0512 92.0108 46.3254 91.4014 46.3863C90.9139 46.2645 90.6701 45.9902 90.6701 45.5636C90.6701 44.8933 90.9596 44.5581 91.5385 44.5581ZM99.8569 44.6495H100.314C100.314 44.7714 100.512 45.3199 100.908 46.2949H100.543C100.451 46.2949 100.405 46.1883 100.405 45.975H99.8569C99.7655 45.975 99.7198 46.0816 99.7198 46.2949H99.2627V46.2035C99.3846 46.0207 99.5827 45.5027 99.8569 44.6495ZM91.1272 45.2437V45.5636C91.1272 45.8379 91.2643 45.975 91.5385 45.975C91.7518 45.9445 91.8585 45.8074 91.8585 45.5636V45.2437C91.8585 45.1523 91.7518 45.0457 91.5385 44.9238H91.4014C91.3405 44.9238 91.2491 45.0304 91.1272 45.2437ZM100.04 45.2437L99.9483 45.6094H100.223C100.162 45.3656 100.101 45.2437 100.04 45.2437ZM91.4014 46.7977C91.7366 46.7977 91.9803 46.95 92.1327 47.2547V47.4833H91.7671C91.7671 47.27 91.6299 47.1633 91.3557 47.1633L91.1272 47.4833V47.7575C91.1272 48.0927 91.2643 48.2603 91.5385 48.2603C91.5995 48.2603 91.7366 48.1231 91.9499 47.8489H92.2241C92.2241 48.2755 91.9499 48.5345 91.4014 48.6259C90.9139 48.4736 90.6701 48.1841 90.6701 47.7575C90.7311 47.1176 90.9748 46.7977 91.4014 46.7977ZM114.391 11.8787V11.6502H123.441V12.0158C123.441 14.8496 123.959 17.013 124.995 18.506C127.707 23.2899 129.063 25.8646 129.063 26.2302H129.154C129.154 26.0169 130.754 22.8633 133.953 16.7692C134.349 15.2152 134.547 13.8288 134.547 12.61V11.6502H143.049V11.7416C143.049 15.9465 142.302 19.1002 140.809 21.2026C140.474 21.8425 138.067 25.6208 133.588 32.5376C134.532 34.0611 135.004 34.8686 135.004 34.96H132.216V36.2397H135.781C136.025 36.4835 137.625 39.0735 140.58 44.0097V49.6314H142.089V53.105H138.752V54.1563H142.089V55.8474H131.988V44.0097H130.845C129.444 41.0236 128.743 39.4391 128.743 39.2563H128.651C128.255 40.2923 127.539 41.8767 126.503 44.0097V50.1342H123.441V56.3501C121.887 56.3806 120.744 56.3958 120.013 56.3958H114.254L113.477 56.3501V49.0373H115.534V42.6385H120.699V41.4959H118.276V37.1538H121.567C121.689 36.971 122.573 35.5694 124.218 32.9489V32.7661C119.343 25.4837 116.692 21.4769 116.265 20.7456C115.016 18.7955 114.391 15.8399 114.391 11.8787ZM148.03 33.8631V11.9244H169.923V19.2373C169.923 19.3287 169.862 19.3744 169.741 19.3744H156.76V29.0183H168.415V29.1097C168.415 29.3534 168.369 30.9227 168.278 33.8173C168.217 33.8173 168.187 33.8326 168.187 33.8631H168.735V36.1026H158.634V45.2437H155.938V46.1578H158.634V48.9459H170.061V49.9514H169.146V55.436H155.48V56.3958H148.99V40.4446H148.03V34.8229H140.9V33.8631H148.03ZM151.733 33.8631H148.076V34.8229H151.733V33.8631ZM179.841 37.3824L187.566 11.6502H195.107C195.198 12.0768 197.636 20.2276 202.42 36.1026H203.791V50.8198H200.683V51.9624H203.791V55.1161H195.473V46.0664H185.28V49.9057H181.167V56.3958H173.58V55.9388H174.174V49.9057H177.282V37.3824H179.841ZM191.268 24.2649H191.085V24.3563C190.445 27.8909 189.196 33.4822 187.337 41.1302H194.33V36.1026H193.736C192.091 28.8507 191.268 24.9048 191.268 24.2649ZM177.739 35.1428H178.425C178.425 35.3256 178.531 35.478 178.745 35.5999C178.745 35.417 178.836 35.2647 179.019 35.1428H179.567V35.1885C179.202 35.676 179.019 35.9503 179.019 36.0112C179.11 36.194 179.308 36.4987 179.613 36.9253V37.1081H179.339C179.064 37.1081 178.866 36.8948 178.745 36.4683C178.409 36.8948 178.227 37.1081 178.196 37.1081H177.83C177.709 37.1081 177.648 37.0472 177.648 36.9253C177.709 36.9253 177.922 36.6511 178.287 36.1026V35.9655C177.922 35.4475 177.739 35.1733 177.739 35.1428ZM171.432 37.3824V36.0112H177.282V37.3824H171.432ZM204.02 37.4738V37.0167H205.574V37.3824L204.614 38.5707H205.528C205.619 38.6012 205.665 38.6621 205.665 38.7535V38.8907C205.665 39.0125 205.619 39.0735 205.528 39.0735H203.928V38.6621L204.888 37.4738H204.02ZM192.456 40.9931V38.9821H192.913V39.7133L193.736 38.9821H194.193V39.0735L193.553 39.8048C194.041 40.5056 194.284 40.9017 194.284 40.9931H193.827C193.766 40.9931 193.538 40.7189 193.142 40.1704C193.081 40.1704 193.005 40.2466 192.913 40.3989V40.9931H192.456ZM204.157 39.6676H205.071C205.528 39.7286 205.756 39.9571 205.756 40.3532L205.528 40.7189C205.68 40.8712 205.756 41.1759 205.756 41.633V41.6787H205.299C205.238 41.1912 205.162 40.9474 205.071 40.9474H204.522V41.6787H204.157C204.065 41.6787 204.02 41.633 204.02 41.5416V39.8048C204.02 39.7134 204.065 39.6676 204.157 39.6676ZM205.208 40.079H204.522V40.536H205.071C205.162 40.536 205.208 40.4903 205.208 40.3989V40.079ZM204.02 42.2729H205.437C205.528 42.3033 205.574 42.349 205.574 42.41V42.5928C205.574 42.6842 205.528 42.7299 205.437 42.7299H204.979V44.3296H204.477V42.7299H204.02C203.898 42.7299 203.837 42.6842 203.837 42.5928V42.41C203.867 42.3186 203.928 42.2729 204.02 42.2729ZM204.477 46.9805L203.837 44.9238H204.202C204.355 44.9238 204.522 45.3504 204.705 46.2035H204.751C204.995 45.4722 205.117 45.0457 205.117 44.9238H205.665C205.269 46.2949 205.01 46.9805 204.888 46.9805H204.477ZM185.646 47.3462L187.566 46.6606V47.0719C187.566 47.1329 187.154 47.3005 186.332 47.5747V47.6661L187.566 48.0774V48.5345L185.646 47.8489V47.3462ZM175.865 47.5747H176.094C176.276 47.5747 176.551 48.2603 176.916 49.6314H176.459C176.459 49.5705 176.414 49.4029 176.322 49.1287H175.637C175.606 49.4638 175.53 49.6314 175.408 49.6314H175.042C175.469 48.2603 175.743 47.5747 175.865 47.5747ZM204.842 47.5747H205.071C205.558 47.5747 205.863 47.9251 205.985 48.6259C205.833 49.3267 205.497 49.6771 204.979 49.6771C204.279 49.5553 203.928 49.2048 203.928 48.6259C204.05 47.9251 204.355 47.5747 204.842 47.5747ZM204.477 48.5345V48.6259C204.477 48.9001 204.599 49.1134 204.842 49.2658H205.071C205.315 49.1134 205.437 48.9001 205.437 48.6259V48.5345C205.406 48.1384 205.223 47.9403 204.888 47.9403C204.614 48.0622 204.477 48.2603 204.477 48.5345ZM176.002 48.2603H175.957C175.835 48.5954 175.774 48.763 175.774 48.763H176.139L176.002 48.2603ZM195.473 56.3958V55.6646H205.528V56.3958H195.473ZM208.453 11.6045H216.863C216.954 11.635 217 11.6959 217 11.7873V33.5431C217 33.6345 216.954 33.6802 216.863 33.6802H215.857V56.2587C215.857 56.3501 215.812 56.3958 215.72 56.3958H208.453C208.331 56.3958 208.27 56.3501 208.27 56.2587V33.1318H206.031C205.939 33.1318 205.894 33.0861 205.894 32.9946V32.0348C205.894 31.913 205.939 31.852 206.031 31.852H208.27V11.7873C208.301 11.6654 208.362 11.6045 208.453 11.6045ZM212.658 31.852H208.362V33.1318H212.658V31.852Z" fill="white"/>
<path d="M57.2965 10.2967L33.5935 0.40625L9.89047 10.2967L0 33.9998L9.80521 57.7028L33.5935 67.5933L57.2965 57.7881L67.187 33.9998L57.2965 10.2967ZM65.0554 32.7208L54.3976 29.8219V29.3103C54.3976 27.6051 53.4597 26.0703 52.0955 25.2177L56.8702 12.6841L65.0554 32.7208ZM30.0125 42.7818C29.7567 40.8208 28.6483 39.2008 27.0283 38.2629L31.2914 27.9461C32.0588 28.2019 32.8261 28.2872 33.5935 28.2872C34.3609 28.2872 35.2135 28.2019 35.8956 27.9461L41.1819 40.7355C40.4998 41.2471 39.9882 41.9292 39.8177 42.7818H30.0125ZM43.1429 40.1387C42.9724 40.1387 42.8019 40.1387 42.5461 40.2239L37.2598 27.4345C38.3682 26.8377 39.2208 25.9851 39.9029 24.9619L45.1892 27.8608C45.0187 28.3724 44.9334 28.884 44.9334 29.3956C44.9334 31.0156 45.7861 32.465 46.9797 33.3177L43.825 40.2239C43.5692 40.1387 43.3987 40.1387 43.1429 40.1387ZM23.9588 37.4103C23.2767 37.4103 22.5946 37.4955 21.9978 37.7513L17.2231 27.8608C17.9904 27.264 18.502 26.3261 18.502 25.2177V25.1324L26.4314 23.1714C27.0283 24.9619 28.3072 26.4966 30.0125 27.3493L25.7493 37.5808C25.1525 37.4955 24.5557 37.4103 23.9588 37.4103ZM49.6229 24.7061C48.0882 24.7061 46.8092 25.3882 45.9566 26.4966L40.6703 23.5977C41.0966 22.6598 41.2672 21.6367 41.2672 20.6135C41.2672 19.7609 41.0966 18.9935 40.8408 18.2262L55.3355 12.1725L50.646 24.7914C50.305 24.7061 49.9639 24.7061 49.6229 24.7061ZM26.0051 21.7219L18.0757 23.683C17.4789 22.5746 16.3704 21.8072 15.0062 21.8072H14.7504L11.681 12.1725L26.2609 18.2262C26.0051 18.9935 25.8346 19.7609 25.8346 20.6135C25.9199 21.0398 25.9199 21.3809 26.0051 21.7219ZM12.6189 27.6051C13.2157 28.2019 14.0683 28.6282 15.0062 28.6282C15.262 28.6282 15.5178 28.6282 15.7736 28.5429L20.5483 38.4334C19.6957 38.945 19.0136 39.7124 18.502 40.565L2.55788 33.9998L12.6189 27.6051ZM45.1892 40.8208L48.4292 33.9145C48.8555 33.9998 49.2818 34.085 49.7082 34.085C51.5839 34.085 53.2892 32.9766 53.9713 31.3566L64.2881 34.085L45.9566 41.6734C45.7861 41.3323 45.445 41.0766 45.1892 40.8208ZM40.244 16.862C39.0503 14.7304 36.8335 13.2809 34.3609 13.0251V2.36729L54.8239 10.8083L40.244 16.862ZM32.8261 2.36729V13.0251C30.2683 13.2809 28.1367 14.7304 26.943 16.862L12.3631 10.8083L32.8261 2.36729ZM10.402 12.8546L13.3862 22.2335C12.3631 22.8303 11.681 23.9388 11.681 25.1324C11.681 25.5587 11.7663 25.8998 11.9368 26.3261L2.38736 32.3798L10.402 12.8546ZM2.21683 35.364L17.9904 41.9292C17.8199 42.4408 17.7346 42.9523 17.7346 43.5492C17.7346 44.9986 18.2462 46.2776 19.0988 47.386L10.6578 55.9123L2.21683 35.364ZM11.7663 56.9354L20.2073 48.4092C21.2304 49.1765 22.5094 49.6881 23.9588 49.6881C24.5557 49.6881 25.1525 49.6028 25.6641 49.4323L32.2293 65.3764L11.7663 56.9354ZM27.0283 48.8355C28.6483 47.8976 29.8419 46.1923 30.0125 44.2313H39.8177C39.9882 45.0839 40.4998 45.8513 41.2672 46.2776L33.5935 64.7796L27.0283 48.8355ZM42.6314 46.8744C42.8019 46.8744 42.9724 46.9597 43.1429 46.9597C43.825 46.9597 44.4219 46.7892 44.9334 46.4481L55.4208 56.9354L34.9577 65.3764L42.6314 46.8744ZM56.5292 55.827L45.9566 45.3397C46.2976 44.8281 46.4682 44.2313 46.4682 43.5492C46.4682 43.3787 46.4682 43.2081 46.3829 43.0376L64.8849 35.364L56.5292 55.827Z" fill="url(#paint0_linear_924_3853)"/>
<defs>
<linearGradient id="paint0_linear_924_3853" x1="-4" y1="-1" x2="58.5" y2="48" gradientUnits="userSpaceOnUse">
<stop stop-color="#FD00FF"/>
<stop offset="1" stop-color="#67EFFF"/>
</linearGradient>
</defs>
</svg>
